<svg width="15" height="21" viewBox="0 0 15 21" fill="none" xmlns="http://www.w3.org/2000/svg">
<path d="M11.0775 12.347L10.5357 12.7195V13.377V15.55H4.46429V13.377V12.7195L3.92253 12.347C2.29785 11.2298 1.25 9.40848 1.25 7.34999C1.25 5.74041 1.90221 4.19153 3.07161 3.04553C4.24186 1.89868 5.83434 1.25 7.5 1.25C9.16566 1.25 10.7581 1.89868 11.9284 3.04553C13.0978 4.19153 13.75 5.74041 13.75 7.34999C13.75 9.40848 12.7022 11.2298 11.0775 12.347Z" stroke="#009D8C" stroke-width="2.5"/>
<path d="M4 18.5V19.75C4 20.0815 4.12292 20.3995 4.34171 20.6339C4.5605 20.8683 4.85725 21 5.16667 21H9.83333C10.1428 21 10.4395 20.8683 10.6583 20.6339C10.8771 20.3995 11 20.0815 11 19.75V18.5H4Z" fill="#009D8C"/>
</svg>
