<svg width="10" height="9" viewBox="0 0 10 9" fill="none" xmlns="http://www.w3.org/2000/svg">
<path d="M4.99998 1.91207C4.76402 1.91206 4.54182 1.80101 4.40017 1.6123C4.25279 1.41594 4.09017 1.25376 3.91662 1.12446L3.91658 1.12443C3.58 0.873637 3.20834 0.750488 2.7935 0.750488C2.21869 0.750488 1.70639 0.969908 1.33515 1.3578L4.99998 1.91207ZM4.99998 1.91207C5.23594 1.91208 5.45814 1.80104 5.5998 1.61233M4.99998 1.91207L5.5998 1.61233M5.5998 1.61233C5.74726 1.4159 5.90981 1.25378 6.0833 1.12447L5.5998 1.61233ZM3.95049 6.90859L3.95053 6.90862L3.95268 6.91038C4.26865 7.16984 4.62661 7.46377 5 7.77713C5.37036 7.46627 5.7257 7.17447 6.03981 6.91652L6.04968 6.90842L6.04975 6.90836C7.0745 6.06705 7.88606 5.39759 8.43966 4.75399L8.43969 4.75396C9.03211 4.06531 9.25 3.48653 9.25 2.8958C9.25 2.28263 9.0329 1.7425 8.66482 1.35784C8.29355 0.969908 7.78131 0.750488 7.2065 0.750488C6.79171 0.750488 6.42006 0.873607 6.0834 1.12439L3.95049 6.90859ZM3.95049 6.90859C2.92562 6.06716 2.11403 5.39761 1.56041 4.75406L3.95049 6.90859ZM0.75 2.89588C0.75 2.28265 0.967083 1.74253 1.33508 1.35787L1.56039 4.75404C0.96792 4.06526 0.75 3.48648 0.75 2.89588Z" fill="#BDBDBD" stroke="#BDBDBD" stroke-width="1.5" stroke-linejoin="round"/>
</svg>
