<svg width="194" height="44" viewBox="0 0 194 44" fill="none" xmlns="http://www.w3.org/2000/svg">
<path d="M57.6242 18.9066C58.3541 19.2963 58.9303 19.8418 59.3145 20.5042C59.6987 21.1666 59.9292 21.9459 59.9292 22.7642C59.9292 23.4656 59.8139 24.089 59.6218 24.5955C59.545 24.7514 59.4682 24.8683 59.3529 24.9462C59.2377 25.0242 59.084 25.0631 58.8535 25.0631H52.0155C52.0923 25.8035 52.3228 26.4659 52.6686 27.1283C53.0143 27.7907 53.3985 28.2972 53.8979 28.6869C54.3973 29.0765 54.9351 29.2713 55.5113 29.2713C56.0492 29.2713 56.7022 29.1934 57.5474 29.0375C58.3541 28.8817 58.9304 28.7648 59.1993 28.6479L59.4298 29.0765C58.8919 29.7389 58.162 30.3234 57.2401 30.752C56.3181 31.1806 55.3577 31.4144 54.3589 31.4144C53.3216 31.4144 52.3612 31.1806 51.4393 30.752C50.5557 30.2844 49.8258 29.5831 49.2496 28.6479C48.6733 27.6738 48.4044 26.5048 48.4044 25.0631C48.4044 23.8552 48.6733 22.7252 49.2112 21.7121C49.749 20.6601 50.5173 19.8418 51.5161 19.2184C52.5149 18.5949 53.6674 18.2832 54.9735 18.2832C56.0108 18.3222 56.8943 18.517 57.6242 18.9066ZM56.7791 23.4266C56.7407 22.7252 56.5486 22.1407 56.2797 21.6342C55.9723 21.1276 55.6266 20.738 55.1656 20.5042C54.7046 20.2315 54.2436 20.1146 53.7058 20.1146C53.4753 20.1146 53.3216 20.1146 53.168 20.1535C53.0143 20.1925 52.8991 20.2704 52.7838 20.3873C52.5533 20.699 52.3997 21.1276 52.246 21.7511C52.0923 22.3745 52.0155 23.1149 51.9771 24.0111L56.7791 23.4266Z" fill="black"/>
<path d="M76.1792 30.2453L76.0255 31.1804H68.496L68.6881 30.1673L69.9558 29.5829L67.6125 26.5046L65.3459 29.5829L66.7673 30.2842L66.5752 31.1804H60.9665L61.1586 30.1673L62.9257 29.466L66.5368 25.1019L62.7721 20.2313L60.9281 19.5689L61.1202 18.6337H68.5728L68.3808 19.6078L67.1899 20.1923L69.418 23.3485L71.6845 20.2313L70.2247 19.5299L70.4168 18.6337H75.9487L75.7566 19.6858L74.1816 20.3092L70.4936 24.8291L74.3736 29.5829L76.1792 30.2453Z" fill="black"/>
<path d="M85.7831 36.4796L85.591 37.4148H76.7169L76.909 36.3627L78.6761 35.5055V21.0105L76.8322 19.8805L76.9474 19.2181L81.3652 18.5168L82.172 20.2702C82.9403 19.6857 83.6702 19.2181 84.3617 18.8674C85.0532 18.5168 85.7831 18.3219 86.513 18.3219C87.4349 18.3219 88.2033 18.5557 88.8563 19.0623C89.5094 19.5688 90.0088 20.2702 90.393 21.2053C90.7771 22.1405 90.9308 23.2705 90.9308 24.5563C90.9308 25.7643 90.7003 26.8942 90.2393 27.9463C89.7783 28.9983 89.1636 29.8556 88.3569 30.479C87.9728 30.7907 87.5502 31.0245 87.0892 31.1804C86.6282 31.3752 86.1288 31.4531 85.6294 31.4531C84.9763 31.4531 84.3617 31.3363 83.7854 31.1025C83.2092 30.8687 82.7482 30.5569 82.4409 30.0894V35.5834L85.7831 36.4796ZM82.3256 22.0236V28.6866C82.7098 28.9594 83.2092 29.1152 83.747 29.2321C84.2848 29.349 84.8227 29.388 85.3989 29.388C85.7062 29.388 85.9751 29.349 86.1672 29.2711C86.3593 29.1932 86.513 29.0763 86.6282 28.8815C86.8203 28.6087 86.9739 28.1411 87.0892 27.5956C87.2044 27.0111 87.2813 26.3877 87.2813 25.7253C87.2813 24.7901 87.166 23.9329 86.9355 23.1146C86.705 22.3353 86.3593 21.6729 85.9367 21.1274C85.7831 20.9326 85.6294 20.7767 85.4757 20.6988C85.3221 20.6209 85.13 20.5819 84.9379 20.5819C84.6306 20.5819 84.208 20.6209 83.6702 20.7378C83.1324 20.8547 82.6714 20.9716 82.3256 21.0884C82.2872 21.3222 82.3256 21.634 82.3256 22.0236Z" fill="black"/>
<path d="M92.1983 13.1786L92.3136 12.5552L97.7302 11.7759V29.3881L99.6126 30.2843L99.4205 31.1805H92.1599L92.352 30.1674L94.1191 29.3102V14.3476L92.1983 13.1786Z" fill="black"/>
<path d="M101.649 21.8288C102.187 20.7767 102.955 19.9195 103.916 19.2961C104.876 18.6726 105.99 18.3219 107.22 18.3219C108.411 18.3219 109.486 18.5557 110.408 19.0233C111.369 19.4909 112.098 20.1923 112.675 21.1274C113.251 22.0626 113.52 23.2315 113.52 24.6343C113.52 25.8422 113.251 26.9332 112.713 27.9853C112.175 29.0373 111.407 29.8945 110.447 30.518C109.486 31.1414 108.411 31.4531 107.22 31.4531C106.029 31.4531 104.953 31.2194 103.993 30.7907C103.032 30.3232 102.264 29.6608 101.726 28.6866C101.15 27.7515 100.881 26.5825 100.881 25.1408C100.804 24.0108 101.073 22.8808 101.649 21.8288ZM108.833 29.5049C109.064 29.427 109.256 29.3101 109.371 29.1542C109.525 28.9204 109.678 28.5308 109.755 27.9463C109.832 27.3618 109.909 26.7773 109.909 26.1539C109.909 24.946 109.755 23.8939 109.448 22.9588C109.14 22.0236 108.718 21.3612 108.142 20.8547C107.604 20.3481 106.951 20.1143 106.259 20.1143C105.645 20.1143 105.184 20.2702 104.953 20.5819C104.799 20.8157 104.684 21.2053 104.569 21.7898C104.454 22.3743 104.415 22.9588 104.415 23.5822C104.415 24.7122 104.569 25.7253 104.838 26.6215C105.107 27.5177 105.529 28.258 106.067 28.7646C106.605 29.3101 107.258 29.5439 108.026 29.5439C108.334 29.6218 108.603 29.5828 108.833 29.5049Z" fill="black"/>
<path d="M114.979 19.8805L115.094 19.2181L119.473 18.5168L120.165 20.5429C121.97 19.0623 123.622 18.3219 125.044 18.3219C125.658 18.3219 126.273 18.4778 126.849 18.8285C127.425 19.1792 127.886 19.7247 128.194 20.504C129.001 19.8416 129.807 19.2961 130.691 18.9064C131.536 18.5168 132.304 18.3219 132.919 18.3219C133.764 18.3219 134.494 18.4778 135.032 18.8285C135.608 19.1792 136.031 19.7636 136.3 20.5429C136.607 21.3222 136.722 22.4133 136.722 23.7381V29.349L138.758 30.2063L138.566 31.1414H131.766L131.959 30.1673L133.111 29.2711V24.6343C133.111 22.647 132.881 21.4002 132.42 20.9716C132.343 20.8547 132.266 20.7767 132.189 20.7378C132.112 20.6988 131.997 20.6988 131.843 20.6988C131.536 20.6988 130.998 20.7378 130.268 20.8547C129.538 20.9716 128.924 21.1274 128.424 21.2833C128.501 21.595 128.578 22.0236 128.578 22.5691C128.616 23.1146 128.616 23.8939 128.616 24.8681V29.388L130.422 30.2842L130.191 31.1804H123.622L123.776 30.2063L124.928 29.2711V24.5563C124.928 22.647 124.66 21.4002 124.122 20.7767C124.045 20.6988 123.93 20.6598 123.814 20.6598C123.43 20.6598 122.892 20.6988 122.201 20.8157C121.509 20.9326 120.895 21.0495 120.357 21.2443C120.434 21.4781 120.434 21.7509 120.434 22.1015V29.349L122.278 30.2452L122.086 31.1414H114.825L115.017 30.1283L116.784 29.2321V21.0105L114.979 19.8805Z" fill="black"/>
<path d="M140.18 25.8814C140.488 25.3359 140.987 24.9073 141.678 24.5955C142.101 24.4007 142.639 24.2449 143.215 24.1669C143.791 24.089 144.406 24.05 145.021 24.05C145.827 24.05 146.557 24.089 147.133 24.2059V23.5045C147.133 21.5952 146.788 20.4263 146.135 19.9587C145.981 19.8418 145.789 19.7639 145.558 19.7249C145.328 19.6859 145.059 19.647 144.79 19.647C144.56 19.647 144.329 19.6859 144.099 19.7249L143.714 21.9849C143.522 22.1797 143.292 22.3356 143.023 22.4914C142.754 22.6473 142.562 22.7252 142.408 22.7252C142.216 22.7252 141.909 22.6083 141.563 22.3356C141.217 22.0628 140.872 21.7901 140.603 21.4394C140.334 21.0887 140.18 20.777 140.18 20.5042C140.18 20.2704 140.372 20.0756 140.718 19.8028C141.064 19.569 141.486 19.3742 141.909 19.1794C142.677 18.8677 143.561 18.6729 144.521 18.517C145.52 18.3611 146.288 18.2832 146.903 18.2832C148.286 18.2832 149.246 18.6339 149.861 19.3353C150.476 20.0366 150.783 21.0108 150.783 22.2187V28.492C151.013 28.8427 151.321 29.1155 151.667 29.3493C152.051 29.5831 152.473 29.7389 153.011 29.8948L152.857 30.6741C151.82 31.1806 150.591 31.4534 149.246 31.4534C149.016 31.0248 148.747 30.5962 148.478 30.2844C148.209 29.9727 147.863 29.661 147.479 29.3882C147.018 30.0117 146.48 30.4793 145.789 30.8689C145.097 31.2586 144.329 31.4534 143.407 31.4534C142.524 31.4534 141.832 31.2586 141.256 30.9079C140.718 30.5572 140.295 30.1286 140.065 29.5831C139.834 29.0376 139.719 28.492 139.719 27.9465C139.719 27.1283 139.873 26.4269 140.18 25.8814ZM144.56 29.5051C144.905 29.5051 145.328 29.4662 145.866 29.3493C146.404 29.2324 146.826 29.1155 147.133 28.9986V25.1021C146.442 25.219 145.827 25.3359 145.328 25.4917C144.79 25.6476 144.406 25.7645 144.099 25.9204C143.791 26.0762 143.599 26.1931 143.522 26.271C143.407 26.4269 143.33 26.6996 143.33 27.1283C143.33 27.5569 143.407 27.9465 143.599 28.4141C143.753 28.8817 143.945 29.1934 144.175 29.3882C144.252 29.4662 144.406 29.5051 144.56 29.5051Z" fill="black"/>
<path d="M153.472 13.1786L153.588 12.5552L159.004 11.7759V29.3881L160.887 30.2843L160.695 31.1805H153.434L153.626 30.1674L155.393 29.3102V14.3476L153.472 13.1786ZM167.417 29.505L169.184 30.2843L168.954 31.1805H163.268L163.422 30.3233L159.504 23.933L163.384 20.2313L161.924 19.5689L162.116 18.6727H168.186L167.994 19.6858L166.188 20.3482L163.115 23.1537L167.417 29.505Z" fill="black"/>
<path d="M179.095 18.9066C179.825 19.2963 180.401 19.8418 180.785 20.5042C181.169 21.1666 181.4 21.9459 181.4 22.7642C181.4 23.4656 181.285 24.089 181.093 24.5955C181.016 24.7514 180.939 24.8683 180.824 24.9462C180.708 25.0242 180.555 25.0631 180.324 25.0631H173.486C173.563 25.8035 173.794 26.4659 174.139 27.1283C174.485 27.7907 174.869 28.2972 175.369 28.6869C175.868 29.0765 176.406 29.2713 176.982 29.2713C177.52 29.2713 178.173 29.1934 179.018 29.0375C179.863 28.8817 180.401 28.7648 180.67 28.6479L180.9 29.0765C180.363 29.7389 179.633 30.3234 178.711 30.752C177.789 31.1806 176.828 31.4144 175.83 31.4144C174.792 31.4144 173.832 31.1806 172.91 30.752C172.026 30.2844 171.297 29.5831 170.72 28.6479C170.144 27.6738 169.875 26.5048 169.875 25.0631C169.875 23.8552 170.144 22.7252 170.682 21.7121C171.22 20.6601 171.988 19.8418 172.987 19.2184C173.986 18.5949 175.138 18.2832 176.444 18.2832C177.481 18.3222 178.365 18.517 179.095 18.9066ZM178.288 23.4266C178.25 22.7252 178.058 22.1407 177.789 21.6342C177.481 21.1276 177.136 20.738 176.675 20.5042C176.214 20.2315 175.753 20.1146 175.215 20.1146C174.984 20.1146 174.831 20.1146 174.677 20.1535C174.523 20.1925 174.408 20.2704 174.293 20.3873C174.062 20.699 173.909 21.1276 173.755 21.7511C173.601 22.3745 173.525 23.1149 173.486 24.0111L178.288 23.4266Z" fill="black"/>
<path d="M182.86 19.8805L182.975 19.2181L187.393 18.5168L188.199 20.8157C188.699 19.9195 189.198 19.2961 189.736 18.9064C190.274 18.5168 190.85 18.3219 191.503 18.3219C191.734 18.3219 191.964 18.3609 192.233 18.4388C192.502 18.5168 192.771 18.6337 193.001 18.7895C193.309 18.9843 193.539 19.1792 193.731 19.413C193.923 19.6467 194 19.8805 194 20.0754C194 20.3091 193.846 20.6209 193.578 21.0105C193.309 21.4002 193.001 21.7119 192.617 22.0236C192.271 22.2964 191.964 22.4522 191.734 22.4522C191.542 22.4522 191.349 22.3743 191.081 22.2574C190.85 22.1405 190.62 21.9846 190.466 21.8677L190.235 20.5429C189.966 20.6209 189.621 20.8157 189.275 21.0105C188.891 21.2443 188.622 21.4391 188.391 21.634V29.349L191.887 30.2063L191.695 31.1414H182.783L182.975 30.1283L184.742 29.2321V21.0105L182.86 19.8805Z" fill="black"/>
<path d="M29.6186 30.9465C36.8792 23.5821 36.956 11.6199 29.7723 4.17755L30.6943 1.99551L30.0028 0.982422L28.2356 2.77481L25.6234 5.42444C26.0844 5.81409 26.5453 6.20374 27.0063 6.63235C32.9224 12.633 32.9224 22.3353 27.0063 28.3359C21.5513 33.8689 12.9077 34.2586 6.99168 29.5438L9.60396 26.8942C11.5248 28.3359 13.8681 29.1152 16.2883 29.1152C19.3616 29.1152 22.2428 27.9073 24.3941 25.7252C26.5453 23.5432 27.7362 20.6208 27.7362 17.5036H24.0867C24.0867 19.6077 23.28 21.5949 21.8202 23.1146C20.3604 24.6342 18.4012 25.4135 16.2883 25.4135C14.8285 25.4135 13.4455 24.9849 12.2162 24.2445L22.9343 13.3733L24.3941 11.8926L25.5465 10.7237C25.2008 10.2171 24.8166 9.74955 24.3556 9.28197C23.9331 8.85336 23.4337 8.46371 22.9343 8.07406C21.0135 6.63235 18.6701 5.85305 16.2499 5.85305C13.1766 5.85305 10.2954 7.06097 8.14416 9.24301C5.99287 11.425 4.80198 14.3474 4.80198 17.4646C4.80198 19.9584 5.5703 22.2963 6.99168 24.2445L4.37941 26.8942L4.30257 26.9721L0 31.4141L0.960396 32.1155L3.18851 31.1414L3.22693 31.1803C6.26178 34.1027 9.98812 35.8561 13.8681 36.3627V40.9995L10.4875 42.3633L10.1802 43.9998H22.8574L23.2032 42.4022L19.5537 40.9995V36.2458C23.2416 35.5834 26.7758 33.8299 29.6186 30.9465ZM10.8333 11.8926C12.2931 10.412 14.2523 9.55473 16.3267 9.55473C17.7865 9.55473 19.1695 9.98334 20.3988 10.7237L9.68079 21.5949C8.95089 20.348 8.52832 18.9453 8.52832 17.4646C8.52832 15.3605 9.33505 13.3733 10.8333 11.8926Z" fill="#009D8C"/>
</svg>
